<svg width="42" height="42" viewBox="0 0 42 42" fill="none" xmlns="http://www.w3.org/2000/svg">
<g clip-path="url(#clip0_2372_267)">
<path d="M0 0H42V42H0" fill="#FF0050"/>
<path d="M21 29.2852C19.6055 30.7617 15.2578 36.1758 10.418 32.4023C8.44921 30.707 8.12109 28.4375 9.43359 25.5937C11.9492 20.0156 14.5742 14.6289 17.3086 9.43359C19.0312 6.23438 22.9687 6.23438 24.6914 9.43359C27.4258 14.6289 30.0508 20.0156 32.5664 25.5937C33.8789 28.4375 33.5508 30.707 31.582 32.4023C26.7422 36.1758 22.3945 30.7617 21 29.2852ZM21 29.2852C22.3945 27.8086 24.9375 24.0352 24.9375 21.4922C24.9375 18.9492 23.1328 17.4727 21 17.4727C18.8672 17.4727 17.0625 18.9492 17.0625 21.4922C17.0625 24.0352 19.6055 27.8086 21 29.2852Z" stroke="white" stroke-width="1.88672"/>
</g>
<rect x="1.05" y="1.05" width="39.9" height="39.9" rx="11.55" stroke="white" stroke-width="2.1"/>
<defs>
<clipPath id="clip0_2372_267">
<rect width="42" height="42" rx="12.6" fill="white"/>
</clipPath>
</defs>
</svg>
