<svg width="40" height="40" viewBox="0 0 40 40" fill="none" xmlns="http://www.w3.org/2000/svg">
<g clip-path="url(#clip0_2392_40)">
<path d="M0 0H40V40H0" fill="#FF5A5F"/>
<path d="M20 27.8906C18.6719 29.2969 14.5312 34.4531 9.92187 30.8594C8.04688 29.2448 7.73438 27.0833 8.98437 24.375C11.3802 19.0625 13.8802 13.9323 16.4844 8.98437C18.125 5.9375 21.875 5.9375 23.5156 8.98437C26.1198 13.9323 28.6198 19.0625 31.0156 24.375C32.2656 27.0833 31.9531 29.2448 30.0781 30.8594C25.4687 34.4531 21.3281 29.2969 20 27.8906ZM20 27.8906C21.3281 26.4844 23.75 22.8906 23.75 20.4687C23.75 18.0469 22.0312 16.6406 20 16.6406C17.9687 16.6406 16.25 18.0469 16.25 20.4687C16.25 22.8906 18.6719 26.4844 20 27.8906Z" stroke="white" stroke-width="1.79688"/>
</g>
<defs>
<clipPath id="clip0_2392_40">
<rect width="40" height="40" rx="12" fill="white"/>
</clipPath>
</defs>
</svg>
