<svg width="80" height="80" viewBox="0 0 80 80" fill="none" xmlns="http://www.w3.org/2000/svg">
<g clip-path="url(#clip0_2363_23)">
<mask id="mask0_2363_23" style="mask-type:luminance" maskUnits="userSpaceOnUse" x="0" y="0" width="80" height="80">
<path d="M0 0H80V80H0V0Z" fill="white"/>
</mask>
<g mask="url(#mask0_2363_23)">
<path d="M60.9375 0H19.0625C8.53457 0 0 8.53457 0 19.0625V60.9375C0 71.4654 8.53457 80 19.0625 80H60.9375C71.4654 80 80 71.4654 80 60.9375V19.0625C80 8.53457 71.4654 0 60.9375 0Z" fill="black"/>
<mask id="mask1_2363_23" style="mask-type:luminance" maskUnits="userSpaceOnUse" x="13" y="13" width="54" height="54">
<path d="M13.2812 13.9062H66.875V66.0938H13.2812V13.9062Z" fill="white"/>
</mask>
<g mask="url(#mask1_2363_23)">
<mask id="mask2_2363_23" style="mask-type:luminance" maskUnits="userSpaceOnUse" x="13" y="13" width="54" height="54">
<path d="M13.2812 13.9062H66.875V66.0938H13.2812V13.9062Z" fill="white"/>
</mask>
<g mask="url(#mask2_2363_23)">
<path d="M39.9107 66.0938L63.1905 53.0469L39.9107 40L16.631 53.0469L39.9107 66.0938Z" fill="url(#paint0_linear_2363_23)"/>
<path d="M63.1905 53.0469V26.9531L39.9106 13.9062V40L63.1905 53.0469Z" fill="url(#paint1_linear_2363_23)"/>
<path d="M39.9107 13.9062L16.631 26.9531V53.0469L39.9107 40V13.9062Z" fill="url(#paint2_linear_2363_23)"/>
<path d="M63.1905 26.9531L39.9106 66.0938V40L63.1905 26.9531Z" fill="#E4E4E4"/>
<path d="M63.1905 26.9531L39.9107 40L16.631 26.9531H63.1905Z" fill="white"/>
</g>
</g>
</g>
</g>
<defs>
<linearGradient id="paint0_linear_2363_23" x1="39.9107" y1="40" x2="39.9107" y2="66.0938" gradientUnits="userSpaceOnUse">
<stop offset="0.16" stop-color="white" stop-opacity="0.39"/>
<stop offset="0.658" stop-color="white" stop-opacity="0.8"/>
</linearGradient>
<linearGradient id="paint1_linear_2363_23" x1="63.1905" y1="27.0336" x2="40.2316" y2="40.8589" gradientUnits="userSpaceOnUse">
<stop offset="0.182" stop-color="white" stop-opacity="0.31"/>
<stop offset="0.715" stop-color="white" stop-opacity="0"/>
</linearGradient>
<linearGradient id="paint2_linear_2363_23" x1="39.9107" y1="13.9063" x2="17.5457" y2="53.5628" gradientUnits="userSpaceOnUse">
<stop stop-color="white" stop-opacity="0.6"/>
<stop offset="0.667" stop-color="white" stop-opacity="0.22"/>
</linearGradient>
<clipPath id="clip0_2363_23">
<rect width="80" height="80" fill="white"/>
</clipPath>
</defs>
</svg>
