<svg width="24" height="24" viewBox="0 0 24 24" fill="none" xmlns="http://www.w3.org/2000/svg">
<path d="M22 12H21.25C21.25 17.1086 17.1086 21.25 12 21.25V22V22.75C17.9371 22.75 22.75 17.9371 22.75 12H22ZM12 22V21.25C6.89137 21.25 2.75 17.1086 2.75 12H2H1.25C1.25 17.9371 6.06294 22.75 12 22.75V22ZM2 12H2.75C2.75 6.89137 6.89137 2.75 12 2.75V2V1.25C6.06294 1.25 1.25 6.06294 1.25 12H2ZM12 2V2.75C17.1086 2.75 21.25 6.89137 21.25 12H22H22.75C22.75 6.06294 17.9371 1.25 12 1.25V2ZM22 13.2644L22.1382 12.5272C21.1662 12.345 20.1667 12.25 19.1472 12.25V13V13.75C20.0733 13.75 20.9802 13.8362 21.8618 14.0015L22 13.2644ZM19.1472 13V12.25C13.5276 12.25 8.54936 15.1308 5.38925 19.5647L6.00001 20L6.61076 20.4353C9.51936 16.3542 14.062 13.75 19.1472 13.75V13ZM19 5.00002L18.4295 4.51319C15.4383 8.0185 10.942 10.25 5.90962 10.25V11V11.75C11.3938 11.75 16.3027 9.31639 19.5705 5.48686L19 5.00002ZM5.90962 11V10.25C4.62128 10.25 3.36875 10.1038 2.16802 9.82779L2 10.5587L1.83198 11.2897C3.14221 11.5908 4.50746 11.75 5.90962 11.75V11ZM14.6178 22L15.3523 22.1516C15.6132 20.888 15.75 19.5799 15.75 18.2407H15H14.25C14.25 19.4775 14.1237 20.684 13.8833 21.8484L14.6178 22ZM15 18.2407H15.75C15.75 11.6678 12.4545 5.86363 7.42689 2.38334L7.00001 3.00001L6.57314 3.61667C11.2141 6.82928 14.25 12.1816 14.25 18.2407H15Z" fill="#3D3D3D"/>
</svg>
