<svg width="64" height="64" viewBox="0 0 64 64" fill="none" xmlns="http://www.w3.org/2000/svg">
<g clip-path="url(#clip0_2392_155)">
<path d="M-0.188293 0H63.8117V64H-0.188293" fill="#520044"/>
<path d="M49.7549 31.5916C50.7195 32.5492 51.2614 33.85 51.2603 35.207V42.9481C51.2622 44.3026 50.7216 45.6025 49.7586 46.5597L39.9619 56.2929C38.9987 57.2495 37.6939 57.7867 36.3333 57.7875H29.163C27.8013 57.786 26.4958 57.2488 25.5307 56.2929L15.734 46.5597C14.7675 45.6 14.2256 44.2962 14.2289 42.9376V21.4588C14.2289 21.216 14.3257 20.9834 14.498 20.8119C14.8568 20.4548 15.4381 20.455 15.797 20.8119L23.3269 28.2995V7.49847C23.328 7.25724 23.4243 7.02588 23.596 6.85526C23.9546 6.49814 24.5362 6.49835 24.895 6.85548C24.895 6.85548 28.3506 10.2939 30.9143 12.8449C35.4501 17.358 49.7549 31.5916 49.7549 31.5916Z" fill="#FA005A"/>
<path d="M42.1728 40.6495C42.1718 41.0549 42.0098 41.4434 41.7222 41.7304L33.8289 49.6142C33.2314 50.2142 32.2586 50.2183 31.6557 49.6238C31.6525 49.6204 31.6495 49.6174 31.6458 49.6142L23.7704 41.7203L23.3163 40.6495V37.6393C23.3172 37.2322 23.4806 36.8418 23.7704 36.5546L26.6065 33.7319C27.2089 33.1344 28.1834 33.1344 28.7854 33.7319L32.7496 37.6807L36.7067 33.7319C37.3092 33.1344 38.2837 33.1344 38.8859 33.7319L41.7185 36.5546C42.0087 36.8418 42.1722 37.2319 42.1726 37.6393V40.6495H42.1728Z" fill="#FFC500"/>
</g>
<defs>
<clipPath id="clip0_2392_155">
<rect width="64" height="64" rx="19.2" fill="white"/>
</clipPath>
</defs>
</svg>
