<svg width="80" height="80" viewBox="0 0 80 80" fill="none" xmlns="http://www.w3.org/2000/svg">
<g clip-path="url(#clip0_2363_42)">
<path d="M61.25 0H18.75C8.39466 0 0 8.39466 0 18.75V61.25C0 71.6053 8.39466 80 18.75 80H61.25C71.6053 80 80 71.6053 80 61.25V18.75C80 8.39466 71.6053 0 61.25 0Z" fill="#242938"/>
<mask id="mask0_2363_42" style="mask-type:luminance" maskUnits="userSpaceOnUse" x="19" y="8" width="42" height="64">
<path d="M60.7375 8.75H19.0625V71.25H60.7375V8.75Z" fill="white"/>
</mask>
<g mask="url(#mask0_2363_42)">
<path d="M29.4833 71.25C35.2334 71.25 39.9 66.5834 39.9 60.8334V50.4166H29.4833C23.7333 50.4166 19.0667 55.0834 19.0667 60.8334C19.0667 66.5834 23.7333 71.25 29.4833 71.25Z" fill="#0ACF83"/>
<path d="M19.0667 40C19.0667 34.25 23.7333 29.5833 29.4833 29.5833H39.9V50.4166H29.4833C23.7333 50.4166 19.0667 45.75 19.0667 40Z" fill="#A259FF"/>
<path d="M19.0667 19.1667C19.0667 13.4167 23.7333 8.75 29.4833 8.75H39.9V29.5833H29.4833C23.7333 29.5833 19.0667 24.9167 19.0667 19.1667Z" fill="#F24E1E"/>
<path d="M39.9 8.75H50.3166C56.0666 8.75 60.7335 13.4167 60.7335 19.1667C60.7335 24.9167 56.0666 29.5833 50.3166 29.5833H39.9V8.75Z" fill="#FF7262"/>
<path d="M60.7335 40C60.7335 45.75 56.0666 50.4166 50.3166 50.4166C44.5666 50.4166 39.9 45.75 39.9 40C39.9 34.25 44.5666 29.5833 50.3166 29.5833C56.0666 29.5833 60.7335 34.25 60.7335 40Z" fill="#1ABCFE"/>
</g>
</g>
<defs>
<clipPath id="clip0_2363_42">
<rect width="80" height="80" fill="white"/>
</clipPath>
</defs>
</svg>
