<svg width="16" height="16" viewBox="0 0 16 16" fill="none" xmlns="http://www.w3.org/2000/svg">
<g clip-path="url(#clip0_2361_153)">
<path d="M5.33543 16C6.04267 16 6.72095 15.7191 7.22105 15.219C7.72114 14.7189 8.0021 14.0406 8.0021 13.3334V10.6667H5.33543C4.62818 10.6667 3.94991 10.9476 3.44981 11.4477C2.94971 11.9478 2.66876 12.6261 2.66876 13.3334C2.66876 14.0406 2.94971 14.7189 3.44981 15.219C3.94991 15.7191 4.62818 16 5.33543 16Z" fill="#0ACF83"/>
<path d="M2.66876 7.99998C2.66876 7.29274 2.94971 6.61446 3.44981 6.11436C3.94991 5.61426 4.62818 5.33331 5.33543 5.33331H8.0021V10.6666H5.33543C4.62818 10.6666 3.94991 10.3857 3.44981 9.8856C2.94971 9.3855 2.66876 8.70722 2.66876 7.99998Z" fill="#A259FF"/>
<path d="M2.66876 2.66667C2.66876 1.95978 2.94943 1.28182 3.44907 0.781785C3.94872 0.281748 4.62646 0.000552252 5.33335 0L8.00001 0V5.33333H5.33543C4.62818 5.33333 3.94991 5.05238 3.44981 4.55228C2.94971 4.05219 2.66876 3.37391 2.66876 2.66667Z" fill="#F24E1E"/>
<path d="M8.00208 0H10.6687C11.376 0 12.0543 0.280952 12.5544 0.781049C13.0545 1.28115 13.3354 1.95942 13.3354 2.66667C13.3354 3.37391 13.0545 4.05219 12.5544 4.55228C12.0543 5.05238 11.376 5.33333 10.6687 5.33333H8.00208V0Z" fill="#FF7262"/>
<path d="M13.3354 7.99998C13.3354 8.70722 13.0545 9.3855 12.5544 9.8856C12.0543 10.3857 11.376 10.6666 10.6687 10.6666C9.9615 10.6666 9.28322 10.3857 8.78312 9.8856C8.28303 9.3855 8.00208 8.70722 8.00208 7.99998C8.00208 7.29274 8.28303 6.61446 8.78312 6.11436C9.28322 5.61426 9.9615 5.33331 10.6687 5.33331C11.376 5.33331 12.0543 5.61426 12.5544 6.11436C13.0545 6.61446 13.3354 7.29274 13.3354 7.99998Z" fill="#1ABCFE"/>
</g>
<defs>
<clipPath id="clip0_2361_153">
<rect width="16" height="16" fill="white"/>
</clipPath>
</defs>
</svg>
