<svg width="24" height="24" viewBox="0 0 24 24" fill="none" xmlns="http://www.w3.org/2000/svg">
<path d="M8.14237 2.53547V13.6333C8.14237 13.8028 8.03781 13.9556 7.8775 14.0204C7.71719 14.0851 7.53276 14.049 7.4103 13.929L5.55857 12.1136C4.92693 11.4944 3.88688 11.5507 3.3286 12.2348C3.12023 12.4902 3.01058 12.7972 3.00043 13.107C3.00482 13.2535 3.02234 13.3997 3.053 13.5437C3.08371 13.6536 3.12767 13.7608 3.18495 13.863L7.09583 19.1091C7.33829 19.4188 7.54655 19.8238 7.70281 20.2802L7.71283 20.3094C7.88575 20.8145 8.02931 21.2338 8.16371 21.5479C8.28938 21.8416 8.4666 22.1986 8.78152 22.4237C9.07269 22.6317 9.40215 22.6955 9.69236 22.7232C9.97273 22.7499 10.3208 22.7499 10.7153 22.7498L17.1164 22.7499C17.2362 22.75 17.3606 22.7501 17.4749 22.7352C18.2625 22.6329 18.8824 22.013 18.9847 21.2254C18.9996 21.1111 18.9994 20.955 18.9993 20.8353C18.9993 20.5075 19.1326 20.1712 19.3787 19.8902C19.7767 19.4357 20.3725 18.7033 20.6187 18.0597C20.8227 17.5268 20.9128 16.9541 20.9564 16.2672C20.9993 15.5919 20.9993 14.7572 20.9993 13.6925L20.9997 12.1939C20.9997 10.8496 20.0279 9.70234 18.7018 9.48134C18.5586 9.45747 18.4283 9.5679 18.4283 9.71307V11.9999C18.4283 12.2312 18.2364 12.4188 17.9997 12.4188C17.763 12.4188 17.5712 12.2312 17.5712 11.9999V9.66952C17.5712 9.57934 17.5712 9.53425 17.5575 9.49059C17.5439 9.44693 17.5198 9.41208 17.4716 9.34239C17.0792 8.77527 16.6522 8.39307 15.5997 8.2933C15.3306 8.26779 15.1961 8.25504 15.0979 8.34431C14.9998 8.43357 14.9998 8.57817 14.9998 8.86738V10.8831C14.9998 11.1144 14.8079 11.3019 14.5712 11.3019C14.3346 11.3019 14.1427 11.1144 14.1427 10.8831V8.26258C14.1427 8.13175 14.1427 8.06633 14.1125 8.00425C14.0824 7.94216 14.0375 7.9069 13.9478 7.83638C13.4802 7.46887 12.8906 7.24967 12.2497 7.24967C12.134 7.25527 11.9555 7.29422 11.7903 7.37551C11.7046 7.4177 11.6617 7.43879 11.6164 7.51159C11.5711 7.58438 11.5711 7.65164 11.5711 7.78617L11.5711 9.76618C11.5711 9.99749 11.3792 10.185 11.1425 10.185C10.9058 10.185 10.714 9.99749 10.714 9.76618L10.714 2.53547C10.714 1.82534 10.1383 1.24967 9.42817 1.24967C8.71804 1.24967 8.14237 1.82534 8.14237 2.53547Z" fill="#141B34"/>
</svg>
