<svg width="24" height="24" viewBox="0 0 24 24" fill="none" xmlns="http://www.w3.org/2000/svg">
<path d="M11.2502 8.25012L12.2502 8.25012C13.3547 8.25012 14.2502 9.14555 14.2502 10.2501M14.2502 10.2501L14.2502 11.2501M14.2502 10.2501C14.2502 9.69784 14.6979 9.25012 15.2502 9.25012C16.3547 9.25012 17.2502 10.1456 17.2502 11.2501M17.2502 11.2501L17.2502 12.2501M17.2502 11.2501C17.2502 10.7266 17.7202 10.3285 18.2366 10.4145L18.579 10.4716C19.5433 10.6323 20.2502 11.4667 20.2502 12.4444L20.2498 13.917C20.2498 16.0903 20.2498 17.177 19.9187 18.0421C19.7267 18.544 19.22 19.184 18.8149 19.6465C18.4645 20.0465 18.2498 20.5539 18.2498 21.0857L18.2498 22.2503M11.25 10.2501L11.25 3.75012C11.25 2.9217 10.5784 2.25012 9.74996 2.25012C8.92154 2.25012 8.24996 2.9217 8.24996 3.75012L8.24976 13.7126L6.62945 12.0872C5.91853 11.374 4.74748 11.4391 4.11941 12.2266C3.63883 12.8292 3.62556 13.6817 4.08713 14.299L7.68683 18.8972C8.37554 19.777 8.74976 21.133 8.74975 22.2503" stroke="#FAFAFA" stroke-width="1.5" stroke-linecap="round" stroke-linejoin="round"/>
</svg>
