<svg width="160" height="64" viewBox="0 0 160 64" fill="none" xmlns="http://www.w3.org/2000/svg">
<g clip-path="url(#clip0_2393_290)">
<path fill-rule="evenodd" clip-rule="evenodd" d="M159.977 64H0V0H160V64H159.977Z" fill="#0058AB"/>
<path fill-rule="evenodd" clip-rule="evenodd" d="M3.20001 31.9999C3.20001 47.7319 35.3861 60.7999 80.0115 60.7999C124.637 60.7999 156.8 47.7319 156.8 31.9999C156.8 16.2679 124.614 3.19995 80.0115 3.19995C35.409 3.19995 3.20001 16.2679 3.20001 31.9999Z" fill="#FBD914"/>
<path d="M74.3168 41.6074C74.8213 42.3238 75.3717 42.9953 76.0138 43.5998H58.6998C58.6998 42.9281 58.0349 41.5626 57.301 40.4882C56.5672 39.4137 52.5998 33.5266 52.5998 33.5266V41.6074C52.5998 42.279 52.5998 42.9281 52.9438 43.5998H38.5195C38.8635 42.9281 38.8635 42.279 38.8635 41.6074V22.4012C38.8635 21.7297 38.8635 21.0806 38.5195 20.409H52.9438C52.5998 21.0806 52.5998 21.7297 52.5998 22.4012V30.7956C52.5998 30.7956 57.2093 24.9308 58.2642 23.5652C59.0667 22.5356 60.053 21.0804 60.053 20.409H75.0965C74.0645 21.0806 72.9179 22.2894 71.9776 23.4086C71.152 24.3935 66.4739 29.9673 66.4739 29.9673C66.4739 29.9673 73.3995 40.2868 74.3168 41.6074ZM78.8573 22.4012V41.6074C78.8573 42.279 78.8573 42.9281 78.5133 43.5998H106.353V37.1529C105.665 37.4886 105 37.4886 104.312 37.4886H92.5938V34.4442H103.853V29.5642H92.5938V26.4977H104.312C105 26.4977 105.665 26.4977 106.353 26.8111V20.3866H78.5133C78.8573 21.0806 78.8573 21.7297 78.8573 22.4012ZM144.925 41.6074C145.154 42.3462 145.544 43.0177 146.049 43.5998H130.959C131.028 42.9281 130.776 42.279 130.501 41.6074C130.501 41.6074 130.271 41.0702 129.95 40.2868L129.813 39.951H121.121L120.984 40.309C120.984 40.309 120.732 40.9583 120.502 41.6298C120.273 42.3014 120.021 42.9505 120.112 43.622H108.211C108.697 43.0349 109.063 42.358 109.288 41.6298L116.42 22.4236C116.673 21.7521 116.925 21.103 116.833 20.4314H136.945C136.761 21.103 137.128 21.7521 137.38 22.4236C137.977 23.8786 144.42 40.309 144.925 41.6074ZM127.909 35.0487L125.8 29.6762C125.616 29.1839 125.456 28.669 125.341 28.1542C125.249 28.6728 125.111 29.1823 124.928 29.6762C124.859 29.9002 123.965 32.2506 122.933 35.0487H127.909ZM31.6856 20.409H16C16.344 21.0806 16.344 21.7297 16.344 22.4012V41.6074C16.344 42.279 16.344 42.9281 16 43.5998H31.6856C31.3416 42.9281 31.3416 42.279 31.3416 41.6074V22.4012C31.3416 21.7297 31.3416 21.0806 31.6856 20.409ZM140.109 22.2446C140.04 20.6105 141.348 19.245 143.022 19.2002H143.228C144.925 19.1778 146.324 20.4761 146.347 22.1326V22.2446C146.393 23.9234 145.04 25.3337 143.297 25.3785C141.577 25.4233 140.132 24.1025 140.086 22.4012C140.109 22.3564 140.109 22.2894 140.109 22.2446ZM140.728 22.2446C140.728 23.5876 141.852 24.6846 143.228 24.6846C144.604 24.6846 145.728 23.5876 145.728 22.2446C145.728 20.9015 144.604 19.8046 143.228 19.8046C141.898 19.7598 140.774 20.7671 140.728 22.0654V22.2446ZM142.609 24.0577H142.059V20.3866H143.457C144.123 20.409 144.627 20.9238 144.627 21.573C144.627 22.0207 144.375 22.4236 143.962 22.6474L144.765 24.0577H144.145L143.412 22.7594H142.609V24.0577ZM142.609 22.2446H143.366C143.733 22.267 144.054 21.9982 144.054 21.6401C144.054 21.282 143.801 20.9686 143.435 20.9686H142.609V22.2446Z" fill="#0058A3"/>
</g>
<defs>
<clipPath id="clip0_2393_290">
<rect width="160" height="64" fill="white"/>
</clipPath>
</defs>
</svg>
