<svg width="16" height="16" viewBox="0 0 16 16" fill="none" xmlns="http://www.w3.org/2000/svg">
<path d="M9.07847 14.2446C8.7894 14.5153 8.40293 14.6666 8.00073 14.6666C7.59853 14.6666 7.21213 14.5153 6.923 14.2446C4.27535 11.7506 0.727174 8.96452 2.45751 4.91969C3.39309 2.73269 5.63889 1.33325 8.00073 1.33325C10.3626 1.33325 12.6084 2.73269 13.544 4.91969C15.2721 8.95945 11.7327 11.7592 9.07847 14.2446Z" stroke="#3D3D3D" stroke-width="1.25"/>
<path d="M10.3333 7.33324C10.3333 8.62191 9.28867 9.66658 8 9.66658C6.71133 9.66658 5.66667 8.62191 5.66667 7.33324C5.66667 6.04458 6.71133 4.99991 8 4.99991C9.28867 4.99991 10.3333 6.04458 10.3333 7.33324Z" stroke="#3D3D3D" stroke-width="1.25"/>
</svg>
