<svg width="64" height="72" viewBox="0 0 64 72" fill="none" xmlns="http://www.w3.org/2000/svg">
<g filter="url(#filter0_d_33_280)">
<path fill-rule="evenodd" clip-rule="evenodd" d="M34 65.208V47.208H52C52 57.1491 43.9411 65.208 34 65.208Z" fill="url(#paint0_linear_33_280)"/>
<path fill-rule="evenodd" clip-rule="evenodd" d="M16 47.208H34V65.208C24.0589 65.208 16 57.1491 16 47.208Z" fill="url(#paint1_linear_33_280)"/>
<path fill-rule="evenodd" clip-rule="evenodd" d="M52 47.208H34V29.208C43.9411 29.208 52 37.2669 52 47.208Z" fill="url(#paint2_linear_33_280)"/>
<path fill-rule="evenodd" clip-rule="evenodd" d="M34 29.208V47.208H16C16 37.2669 24.0589 29.208 34 29.208Z" fill="url(#paint3_linear_33_280)"/>
<g opacity="0.2">
<circle cx="34" cy="47.208" r="17.5" stroke="black" style="mix-blend-mode:overlay"/>
</g>
<path d="M16.708 6.1299L33.0381 22.4961L34.7402 24.2022H22.6309L22.6191 24.2119L16.6943 29.9317L15 31.5674V4.41798L16.708 6.1299Z" fill="black" stroke="white" stroke-width="2"/>
</g>
<defs>
<filter id="filter0_d_33_280" x="-4" y="-0.791977" width="72" height="72" filterUnits="userSpaceOnUse" color-interpolation-filters="sRGB">
<feFlood flood-opacity="0" result="BackgroundImageFix"/>
<feColorMatrix in="SourceAlpha" type="matrix" values="0 0 0 0 0 0 0 0 0 0 0 0 0 0 0 0 0 0 127 0" result="hardAlpha"/>
<feOffset dy="2"/>
<feGaussianBlur stdDeviation="2"/>
<feComposite in2="hardAlpha" operator="out"/>
<feColorMatrix type="matrix" values="0 0 0 0 0 0 0 0 0 0 0 0 0 0 0 0 0 0 0.4 0"/>
<feBlend mode="normal" in2="BackgroundImageFix" result="effect1_dropShadow_33_280"/>
<feBlend mode="normal" in="SourceGraphic" in2="effect1_dropShadow_33_280" result="shape"/>
</filter>
<linearGradient id="paint0_linear_33_280" x1="70" y1="47.208" x2="34" y2="11.208" gradientUnits="userSpaceOnUse">
<stop stop-color="#4A85C7"/>
<stop offset="1" stop-color="#3C7AB7"/>
</linearGradient>
<linearGradient id="paint1_linear_33_280" x1="70" y1="47.208" x2="34" y2="11.208" gradientUnits="userSpaceOnUse">
<stop stop-color="#5EC9F3"/>
<stop offset="1" stop-color="#47C3F1"/>
</linearGradient>
<linearGradient id="paint2_linear_33_280" x1="-2" y1="47.208" x2="34" y2="83.208" gradientUnits="userSpaceOnUse">
<stop stop-color="#86D1F6"/>
<stop offset="1" stop-color="#67CAF3"/>
</linearGradient>
<linearGradient id="paint3_linear_33_280" x1="7" y1="38.208" x2="25" y2="56.208" gradientUnits="userSpaceOnUse">
<stop stop-color="#5595D3"/>
<stop offset="1" stop-color="#4B89C6"/>
</linearGradient>
</defs>
</svg>
