<svg width="64" height="64" viewBox="0 0 64 64" fill="none" xmlns="http://www.w3.org/2000/svg">
<g filter="url(#filter0_d_15_32)">
<path fill-rule="evenodd" clip-rule="evenodd" d="M29.9648 33.8614V31.8934H31.9688V21.6434C31.7305 20.9327 30.6751 19.4678 30.1582 19.0649C29.6449 18.6677 29.0369 18.3671 28.3595 18.1525C28.1872 18.0974 27.8845 18.0522 27.5054 18.0264C27.0951 17.9984 26.6497 17.9949 26.2449 18.0058C26.1154 18.0099 26.1154 18.0099 26.0923 18.0109L26 16.0131C26.0403 16.0112 26.0403 16.0112 26.1909 16.0065C26.6536 15.994 27.1577 15.9981 27.6412 16.031C28.1677 16.0668 28.6105 16.1329 28.9662 16.2467C29.8523 16.5275 30.6689 16.9312 31.3849 17.4853C31.8444 17.8434 32.445 18.5509 32.9484 19.3053C33.4665 18.5537 34.0905 17.8564 34.6123 17.4968C35.466 16.904 36.2429 16.4832 36.9852 16.248C37.3437 16.133 37.7868 16.0669 38.3139 16.0311C38.7966 15.9983 39.2998 15.9942 39.7618 16.0067C39.9125 16.0114 39.9125 16.0114 39.9527 16.0133L39.8604 18.0111C39.8373 18.0101 39.8373 18.0101 39.7078 18.006C39.3037 17.9951 38.8591 17.9986 38.4495 18.0265C38.0703 18.0522 37.7675 18.0974 37.5926 18.1535C37.0688 18.3195 36.4562 18.6514 35.75 19.1416C35.1941 19.5248 34.2336 20.8286 33.9408 21.6178V31.8934H35.9368V33.8614H33.9408V42.2114C34.2334 43 35.1936 44.3016 35.7545 44.6867C36.4559 45.1757 37.0666 45.5061 37.598 45.6714C37.7691 45.7267 38.0714 45.7722 38.4502 45.7982C38.8602 45.8264 39.3052 45.8301 39.7094 45.8192C39.8376 45.8152 39.8376 45.8152 39.8604 45.8141L39.9527 47.8119C39.9128 47.8138 39.9128 47.8138 39.7633 47.8184C39.3009 47.8309 38.7968 47.8268 38.3132 47.7935C37.7856 47.7573 37.3421 47.6905 36.9936 47.5779C36.2449 47.345 35.466 46.9236 34.6166 46.3314C34.0922 45.9714 33.4663 45.2734 32.9472 44.521C32.4444 45.2737 31.8445 45.9801 31.3836 46.3409C30.6688 46.8962 29.8499 47.3011 28.9709 47.577C28.612 47.6927 28.1688 47.7594 27.6419 47.7956C27.1575 47.8289 26.6526 47.8331 26.1895 47.8206C26.04 47.816 26.04 47.816 26 47.8141L26.0923 45.8163C26.1151 45.8174 26.1151 45.8174 26.2434 45.8214C26.6482 45.8323 27.094 45.8286 27.5047 45.8003C27.8833 45.7743 28.1857 45.7288 28.3646 45.6711C29.0364 45.4602 29.6437 45.16 30.1537 44.7638C30.6764 44.3546 31.7308 42.8918 31.9401 42.1734L31.9688 33.8614H29.9648Z" fill="black"/>
</g>
<defs>
<filter id="filter0_d_15_32" x="24" y="14" width="17.9527" height="35.8271" filterUnits="userSpaceOnUse" color-interpolation-filters="sRGB">
<feFlood flood-opacity="0" result="BackgroundImageFix"/>
<feColorMatrix in="SourceAlpha" type="matrix" values="0 0 0 0 0 0 0 0 0 0 0 0 0 0 0 0 0 0 127 0" result="hardAlpha"/>
<feOffset/>
<feGaussianBlur stdDeviation="1"/>
<feColorMatrix type="matrix" values="0 0 0 0 1 0 0 0 0 1 0 0 0 0 1 0 0 0 1 0"/>
<feBlend mode="normal" in2="BackgroundImageFix" result="effect1_dropShadow_15_32"/>
<feBlend mode="normal" in="SourceGraphic" in2="effect1_dropShadow_15_32" result="shape"/>
</filter>
</defs>
</svg>
