<svg width="64" height="64" viewBox="0 0 64 64" fill="none" xmlns="http://www.w3.org/2000/svg">
<g filter="url(#filter0_d_9_843)">
<path fill-rule="evenodd" clip-rule="evenodd" d="M35.954 25.9778H37.9495V27.9732H35.954V25.9778ZM37.9495 37.9505H35.954V35.9551H37.9495V37.9505ZM27.9722 27.9732H25.9767V25.9778H27.9722V27.9732ZM27.9722 37.9505H25.9767V35.9551H27.9722V37.9505ZM31.9631 16.0264L16.0293 31.9661L26.4496 42.3845L31.9631 47.8979L47.8949 31.9641L31.9631 16.0264Z" fill="white"/>
<path fill-rule="evenodd" clip-rule="evenodd" d="M39.9636 30.0024V26.3527L45.066 31.958L39.9616 37.5612L39.9636 33.9534H33.9331V39.9496H37.5349L31.9377 45.0899L26.3364 39.9476L29.9841 39.9496V33.9534H23.9799L23.9819 37.5612L18.8496 31.958L23.9799 26.3527V30.0024H29.9681V23.9799H26.3583L31.9636 18.8516L37.5649 23.9819L33.9591 23.9799V30.0024H39.9636Z" fill="black"/>
</g>
<defs>
<filter id="filter0_d_9_843" x="-4" y="-2" width="72" height="72" filterUnits="userSpaceOnUse" color-interpolation-filters="sRGB">
<feFlood flood-opacity="0" result="BackgroundImageFix"/>
<feColorMatrix in="SourceAlpha" type="matrix" values="0 0 0 0 0 0 0 0 0 0 0 0 0 0 0 0 0 0 127 0" result="hardAlpha"/>
<feOffset dy="2"/>
<feGaussianBlur stdDeviation="2"/>
<feComposite in2="hardAlpha" operator="out"/>
<feColorMatrix type="matrix" values="0 0 0 0 0 0 0 0 0 0 0 0 0 0 0 0 0 0 0.4 0"/>
<feBlend mode="normal" in2="BackgroundImageFix" result="effect1_dropShadow_9_843"/>
<feBlend mode="normal" in="SourceGraphic" in2="effect1_dropShadow_9_843" result="shape"/>
</filter>
</defs>
</svg>
