<svg width="64" height="64" viewBox="0 0 64 64" fill="none" xmlns="http://www.w3.org/2000/svg">
<g filter="url(#filter0_d_8_219)">
<path d="M14.6047 32.68C12.8786 30.7581 15.1647 27.98 17.4847 28.8C19.8047 29.62 22.6209 33.5499 22.4647 32.96C21.3318 28.68 20.6031 24.4736 19.4847 20C18.2347 15 23.2119 14.42 24.3912 19C25.1826 22.0739 26.5847 26.3745 27.0847 28.5C27.0847 20 27.1503 16 30 16C32.8497 16 32.8497 19 32.8497 28.8C34 19 34.6214 17 37 17C39.3786 17 39.4847 20 38.5247 29.5C38.9847 28 41 21 44 22C47 23 42.4847 32.68 42.4847 37C42.4847 40 40.4847 42 39.4847 43C38.4847 44 38.3088 46.0104 38.6447 47.26C37.9358 47.26 37.0867 47.26 36.1847 47.26C34.7318 47.26 34.7365 44.6794 33.5047 44.6794C32.2362 44.6794 32.1035 47.32 30.7247 47.32C28.2722 47.32 26.5712 47.32 24.3912 47.32C24.3912 47.32 25.1697 44.8803 23.9847 44C20.4847 41.4 18.4847 37 14.6047 32.68Z" fill="white"/>
<path d="M36.2303 34.758V41.6508M32.2391 34.7492V41.6508M28.2303 34.758V41.642M14.6047 32.68C12.8786 30.7581 15.1647 27.98 17.4847 28.8C19.8047 29.62 22.6209 33.5499 22.4647 32.96C21.3318 28.68 20.6031 24.4736 19.4847 20C18.2347 15 23.2119 14.42 24.3912 19C25.1826 22.0739 26.5847 26.3745 27.0847 28.5C27.0847 20 27.1503 16 30 16C32.8497 16 32.8497 19 32.8497 28.8C34 19 34.6214 17 37 17C39.3786 17 39.4847 20 38.5247 29.5C38.9847 28 41 21 44 22C47 23 42.4847 32.68 42.4847 37C42.4847 40 40.4847 42 39.4847 43C38.4847 44 38.3088 46.0104 38.6447 47.26C37.9358 47.26 37.0867 47.26 36.1847 47.26C34.7318 47.26 34.7365 44.6794 33.5047 44.6794C32.2362 44.6794 32.1035 47.32 30.7247 47.32C28.2722 47.32 26.5712 47.32 24.3912 47.32C24.3912 47.32 25.1697 44.8803 23.9847 44C20.4847 41.4 18.4847 37 14.6047 32.68Z" stroke="black" stroke-width="1.5" stroke-linecap="round" stroke-linejoin="round"/>
</g>
<defs>
<filter id="filter0_d_8_219" x="9.24987" y="13.1317" width="40.529" height="40.9383" filterUnits="userSpaceOnUse" color-interpolation-filters="sRGB">
<feFlood flood-opacity="0" result="BackgroundImageFix"/>
<feColorMatrix in="SourceAlpha" type="matrix" values="0 0 0 0 0 0 0 0 0 0 0 0 0 0 0 0 0 0 127 0" result="hardAlpha"/>
<feOffset dy="2"/>
<feGaussianBlur stdDeviation="2"/>
<feComposite in2="hardAlpha" operator="out"/>
<feColorMatrix type="matrix" values="0 0 0 0 0 0 0 0 0 0 0 0 0 0 0 0 0 0 0.4 0"/>
<feBlend mode="normal" in2="BackgroundImageFix" result="effect1_dropShadow_8_219"/>
<feBlend mode="normal" in="SourceGraphic" in2="effect1_dropShadow_8_219" result="shape"/>
</filter>
</defs>
</svg>
