<svg width="64" height="64" viewBox="0 0 64 64" fill="none" xmlns="http://www.w3.org/2000/svg">
<g filter="url(#filter0_d_9_455)">
<path fill-rule="evenodd" clip-rule="evenodd" d="M39 28C39 34.076 34.076 39 28 39C21.924 39 17 34.076 17 28C17 21.924 21.924 17 28 17C34.076 17 39 21.924 39 28" fill="white"/>
<path fill-rule="evenodd" clip-rule="evenodd" d="M47.9998 45.172L45.1718 48L34.9535 37.7817C32.9919 39.1785 30.592 40 28 40C21.3717 40 16 34.6283 16 28C16 21.3717 21.3717 16 28 16C34.6283 16 40 21.3717 40 28C40 30.5921 39.1785 32.9921 37.7815 34.9537L47.9998 45.172ZM18 28C18 22.4763 22.4763 18 28 18C33.5237 18 38 22.4763 38 28C38 33.5237 33.5237 38 28 38C22.4763 38 18 33.5237 18 28Z" fill="black"/>
<path fill-rule="evenodd" clip-rule="evenodd" d="M26 30V34H30V30H34V26H30V22H26V26H22V30H26Z" fill="black"/>
</g>
<defs>
<filter id="filter0_d_9_455" x="-4" y="-2" width="72" height="72" filterUnits="userSpaceOnUse" color-interpolation-filters="sRGB">
<feFlood flood-opacity="0" result="BackgroundImageFix"/>
<feColorMatrix in="SourceAlpha" type="matrix" values="0 0 0 0 0 0 0 0 0 0 0 0 0 0 0 0 0 0 127 0" result="hardAlpha"/>
<feOffset dy="2"/>
<feGaussianBlur stdDeviation="2"/>
<feComposite in2="hardAlpha" operator="out"/>
<feColorMatrix type="matrix" values="0 0 0 0 0 0 0 0 0 0 0 0 0 0 0 0 0 0 0.4 0"/>
<feBlend mode="normal" in2="BackgroundImageFix" result="effect1_dropShadow_9_455"/>
<feBlend mode="normal" in="SourceGraphic" in2="effect1_dropShadow_9_455" result="shape"/>
</filter>
</defs>
</svg>
